Coordinates
version=1
nRows=23
nColumns=28
inDegrees=yes

Units are S.I. units (second, meters, Newtons, ...)
Angles are in degrees.

endheader
time	pelvis_tilt	pelvis_list	pelvis_rotation	pelvis_tx	pelvis_ty	pelvis_tz	hip_flexion_r	hip_adduction_r	hip_rotation_r	knee_angle_r	ankle_angle_r	subtalar_angle_r	mtp_angle_r	hip_flexion_l	hip_adduction_l	hip_rotation_l	knee_angle_l	socket_flexion	socket_adduction	socket_rotation	socket_tx	socket_ty	socket_tz	foot_flex	lumbar_extension	lumbar_bending	lumbar_rotation
      0.00000000	      0.22190947	     -6.88705471	     -7.32030271	     -0.86795511	      0.99168094	      0.29314114	    -26.09364587	      8.68501069	      3.64196895	     -2.84660817	      6.76460068	     -9.72150200	      8.88115709	     24.94384578	    -10.14770849	      9.12239933	      1.36385280	      5.61926862	      0.00000000	      0.00000000	      0.00000000	     -0.00309017	      0.00000000	     -0.50333056	    -11.84050145	      4.64000689	     10.12733819
      0.00416667	      0.19273378	     -6.95058288	     -7.33289279	     -0.86240292	      0.99107919	      0.29278875	    -26.09290974	      8.70469427	      3.61125068	     -3.35811137	      6.59266549	     -9.84913025	      8.87510098	     24.66555218	    -10.15797786	      9.11386345	      1.43890175	      5.61400353	      0.00000000	      0.00000000	      0.00000000	     -0.00349941	      0.00000000	     -0.83747784	    -11.76741679	      4.69290825	     10.09286210
      0.00833333	      0.15636355	     -7.03889237	     -7.34586180	     -0.85664070	      0.99047588	      0.29238605	    -26.06843536	      8.74618996	      3.57607145	     -3.92063187	      6.43777191	    -10.00091299	      8.89477818	     24.37201937	    -10.19166989	      9.10212204	      1.55583470	      5.65910761	      0.00000000	      0.00000000	      0.00000000	     -0.00388005	      0.00000000	     -1.13749640	    -11.69424430	      4.78444320	     10.09370698
      0.01250000	      0.10456192	     -7.12342052	     -7.35654755	     -0.85061419	      0.98981255	      0.29200494	    -26.04574392	      8.78661458	      3.56802922	     -4.47275483	      6.28241534	    -10.13265755	      8.92443192	     24.07362873	    -10.22579278	      9.13138396	      1.68411051	      5.69898145	      0.00000000	      0.00000000	      0.00000000	     -0.00434813	      0.00000000	     -1.44782909	    -11.58594402	      4.86421820	     10.11123652
      0.01666667	     -0.00307515	     -7.29399079	     -7.58973793	     -0.84431464	      0.98914556	      0.29191263	    -25.94777275	      8.83050437	      3.80103626	     -5.14033743	      6.05685152	    -10.51159586	      9.49312742	     23.52137542	    -10.48174003	      8.95795685	      2.50273526	      6.18725163	      0.00000000	      0.00000000	      0.00000000	     -0.00493860	      0.00000000	     -1.71588396	    -11.41813579	      5.01693505	     10.46089167
      0.02083333	     -0.02841120	     -7.33045642	     -7.55196027	     -0.83803260	      0.98857154	      0.29142085	    -25.92718458	      8.83776548	      3.77480690	     -5.73025389	      5.80744184	    -10.62544350	      9.50644179	     23.22563393	    -10.43277918	      9.02103713	      2.52877815	      6.16624955	      0.00000000	      0.00000000	      0.00000000	     -0.00537198	      0.00000000	     -2.06215400	    -11.34049991	      5.04290821	     10.44436479
      0.02500000	     -0.07991166	     -7.43962417	     -7.56208037	     -0.83161059	      0.98793655	      0.29095122	    -25.83407568	      8.89807049	      3.70908740	     -6.45097762	      5.55465745	    -10.86988553	      9.64940534	     22.87391690	    -10.48680822	      9.04759847	      2.74162581	      6.28856285	      0.00000000	      0.00000000	      0.00000000	     -0.00596206	      0.00000000	     -2.31552875	    -11.23270954	      5.15765346	     10.46637949
      0.02916667	     -0.13871678	     -7.48468925	     -7.54026810	     -0.82504802	      0.98730598	      0.29051388	    -25.79383435	      8.91274694	      3.74196783	     -7.03738607	      5.32750945	    -10.96066033	      9.66875886	     22.57604172	    -10.46757188	      9.15438919	      2.80573672	      6.28010689	      0.00000000	      0.00000000	      0.00000000	     -0.00660647	      0.00000000	     -2.70217349	    -11.08726435	      5.17502840	     10.45427488
      0.03333333	     -0.25879285	     -7.60472743	     -7.59924148	     -0.81846467	      0.98667159	      0.29008462	    -25.55559672	      8.97746331	      3.69116192	     -7.90896320	      4.99356100	    -11.30450857	      9.89344660	     22.21741820	    -10.56865949	      9.15158609	      3.19119448	      6.53660814	      0.00000000	      0.00000000	      0.00000000	     -0.00724942	      0.00000000	     -2.95373734	    -10.90209012	      5.32361484	     10.51262310
      0.03750000	     -0.31795958	     -7.63818861	     -7.57106028	     -0.81177190	      0.98611291	      0.28964056	    -25.47114996	      8.98824741	      3.72535047	     -8.57282952	      4.70239716	    -11.42216386	      9.92278930	     21.91096645	    -10.53612080	      9.24438122	      3.26866508	      6.55525295	      0.00000000	      0.00000000	      0.00000000	     -0.00796238	      0.00000000	     -3.34114489	    -10.75511719	      5.32783422	     10.49673061
      0.04166667	     -0.37460362	     -7.68112411	     -7.55908973	     -0.80507711	      0.98562997	      0.28919635	    -25.31550529	      9.00196114	      3.69727279	     -9.37577072	      4.35672554	    -11.60126672	      9.94150633	     21.58575927	    -10.52352797	      9.31861189	      3.37486186	      6.61348149	      0.00000000	      0.00000000	      0.00000000	     -0.00868156	      0.00000000	     -3.64354827	    -10.61430791	      5.35864508	     10.47363596
      0.04583333	     -0.56630401	     -7.71118297	     -7.63118976	     -0.79822450	      0.98505591	      0.28881952	    -24.96893916	      8.98736837	      3.68012833	    -10.27513036	      3.89975476	    -12.08972473	     10.27259692	     21.26240062	    -10.55106493	      9.27729886	      3.83672031	      6.95332814	      0.00000000	      0.00000000	      0.00000000	     -0.00935664	      0.00000000	     -3.85227272	    -10.29439891	      5.40586430	     10.52411151
      0.05000000	     -0.59657010	     -7.71823684	     -7.59538172	     -0.79152497	      0.98474280	      0.28835328	    -24.82649305	      8.97629648	      3.72239820	    -11.05935900	      3.51723463	    -12.22176356	     10.29305047	     20.94148146	    -10.49143705	      9.38681666	      3.86223987	      6.97597768	      0.00000000	      0.00000000	      0.00000000	     -0.01012200	      0.00000000	     -4.16706250	    -10.17691278	      5.36364320	     10.48498680
      0.05416667	     -0.75713773	     -7.69161927	     -7.71751086	     -0.78460751	      0.98436323	      0.28814224	    -24.51698387	      8.89330480	      3.82815262	    -11.86496416	      2.21347007	    -13.52286416	     12.79267802	     20.57405061	    -10.48406591	      9.25806050	      4.27629949	      7.27806232	      0.00000000	      0.00000000	      0.00000000	     -0.01082973	      0.00000000	     -4.36363790	     -9.87486042	      5.32058841	     10.60685516
      0.05833333	     -0.75683726	     -7.66513615	     -7.65632681	     -0.77793854	      0.98419946	      0.28759160	    -24.29730482	      8.84341274	      3.72191437	    -12.82548628	      1.76509210	    -13.63574594	     12.73349891	     20.25277070	    -10.37082915	      9.31947694	      4.25585408	      7.32430147	      0.00000000	      0.00000000	      0.00000000	     -0.01159919	      0.00000000	     -4.63160849	     -9.78993584	      5.26618198	     10.50720426
      0.06250000	     -0.88432877	     -7.48006754	     -7.59993829	     -0.77102203	      0.98397582	      0.28719717	    -23.89146865	      8.66309441	      3.46867441	    -13.82989705	      1.24925168	    -13.87512652	     12.91806353	     20.00996861	    -10.12125321	      9.31287076	      4.38481008	      7.47710377	      0.00000000	      0.00000000	      0.00000000	     -0.01212476	      0.00000000	     -4.81836864	     -9.48122101	      5.03244130	     10.35010972
      0.06666667	     -0.85968421	     -7.43216851	     -7.53452940	     -0.76444226	      0.98399568	      0.28663099	    -23.62858679	      8.59686042	      3.41892730	    -14.87159239	      0.73178340	    -13.99061638	     12.87022378	     19.68522222	     -9.98868258	      9.40757878	      4.32180997	      7.53012628	      0.00000000	      0.00000000	      0.00000000	     -0.01285531	      0.00000000	     -5.00096580	     -9.44692702	      4.94774466	     10.25987975
      0.07083333	     -0.86333398	     -7.29598880	     -7.49961350	     -0.75772232	      0.98405222	      0.28614782	    -23.26098078	      8.41899024	      3.14949743	    -16.01246290	      0.10658019	    -14.24323573	     12.84109019	     19.36663640	     -9.77549232	      9.36630087	      4.28566573	      7.61065809	      0.00000000	      0.00000000	      0.00000000	     -0.01353313	      0.00000000	     -5.14126229	     -9.32035309	      4.76951541	     10.13094311
      0.07500000	     -0.85194165	     -7.14183429	     -7.40666201	     -0.75115372	      0.98424587	      0.28562018	    -22.92305558	      8.26698907	      3.07775762	    -17.09833931	     -0.46826279	    -14.40032839	     12.81046069	     19.07609228	     -9.53354557	      9.43830124	      4.22021564	      7.70265304	      0.00000000	      0.00000000	      0.00000000	     -0.01405414	      0.00000000	     -5.27863398	     -9.24236864	      4.54483326	     10.01121639
      0.07916667	     -0.97193970	     -6.69505494	     -7.31694852	     -0.74416075	      0.98430603	      0.28523009	    -22.32074374	      7.80635756	      2.52686894	    -18.34905801	     -1.26816240	    -14.78734185	     13.13650975	     18.89652658	     -8.99045815	      9.29406678	      4.19256631	      7.81730868	      0.00000000	      0.00000000	      0.00000000	     -0.01428490	      0.00000000	     -5.36998122	     -8.88264618	      4.00780090	      9.77254430
      0.08333333	     -0.93170383	     -6.53302707	     -7.22236349	     -0.73765378	      0.98462945	      0.28466083	    -21.89444164	      7.61596172	      2.29100915	    -19.60709296	     -1.99304479	    -14.92234988	     13.24464554	     18.60280096	     -8.72944272	      9.29133115	      4.06327763	      7.89739694	      0.00000000	      0.00000000	      0.00000000	     -0.01481953	      0.00000000	     -5.45236271	     -8.83004317	      3.79091835	      9.61676193
      0.08750000	     -0.90340706	     -6.23479017	     -7.12234140	     -0.73103352	      0.98499130	      0.28411244	    -21.39212718	      7.27916480	      1.91922448	    -20.94004380	     -2.79376078	    -15.10667744	     13.38200091	     18.32221098	     -8.32579216	      9.25073739	      3.92224308	      7.96741227	      0.00000000	      0.00000000	      0.00000000	     -0.01518371	      0.00000000	     -5.51718618	     -8.73321459	      3.41796628	      9.42625367
      0.09166667	     -0.94156328	     -5.76221275	     -6.96305290	     -0.72428510	      0.98530750	      0.28359726	    -20.77827959	      6.77407959	      1.33225294	    -22.28765022	     -3.64435426	    -15.23515957	     13.91324341	     18.14693661	     -7.72977557	      9.19225243	      3.73780399	      8.01592497	      0.00000000	      0.00000000	      0.00000000	     -0.01530830	      0.00000000	     -5.56556570	     -8.51178695	      2.82455032	      9.15964726
